<!DOCTYPE svg PUBLIC "-//W3C//DTD SVG 1.1//EN" "http://www.w3.org/Graphics/SVG/1.1/DTD/svg11.dtd">
<!-- Uploaded to: SVG Repo, www.svgrepo.com, Transformed by: SVG Repo Mixer Tools -->
<svg height="64px" width="64px" version="1.1" id="_x32_" xmlns="http://www.w3.org/2000/svg" xmlns:xlink="http://www.w3.org/1999/xlink" viewBox="0 0 512 512" xml:space="preserve" fill="#ffffff">
<g id="SVGRepo_bgCarrier" stroke-width="0"/>
<g id="SVGRepo_tracerCarrier" stroke-linecap="round" stroke-linejoin="round"/>
<g id="SVGRepo_iconCarrier"> <style type="text/css"> .st0{fill:#ffffff;} </style> <g> <path class="st0" d="M476.741,129.962C476.658,129.773,476.67,129.804,476.741,129.962L476.741,129.962z"/> <path class="st0" d="M476.741,129.962c0.344,0.768,2.132,4.792,6.374,14.314C492.696,165.778,477.733,132.192,476.741,129.962z"/> <path class="st0" d="M483.115,144.276C393.486-56.942,101.555-43.768,24.468,159.333 c-79.871,210.431,143.055,438.656,350.166,320.186c-3.748-7.078-14.076-35.546-20.956-37.902 c-34.827,19.912-75.284,27.242-115.267,23.874c-80.693-6.801-147.99-64.165-174.165-140.074 C7.655,161.366,165.91-12.405,333.464,57.027c73.56,30.438,126.67,102.749,126.67,183.37c0,29.853-6.121,66.04-29.797,86.925 c-20.039,17.754-56.147,14.187-67.044-11.744c-12.526-30.232,0.822-75.078,5.773-106.568c3.02-19.248,6.057-38.504,9.078-57.752 c0.475-2.974-37.12-7.702-42.64-8.636c-0.601,3.812-1.202,7.623-1.802,11.435c-87.557-63.366-197.574,21.945-197.574,118.224 c-0.079,96.391,129.138,148.07,192.876,72.224c30.209,51.078,103.911,49.267,140.256,6.105 C515.807,295.311,510.872,206.584,483.115,144.276z M298.464,312.131c-55.134,74.423-160.658-24.728-97.869-101.325 c25.052-30.548,73.813-44.142,107.865-20.046C338.526,212.04,316.272,288.036,298.464,312.131z"/> </g> </g>
</svg>